<svg width="400" height="32" viewBox="0 0 400 32" fill="none" xmlns="http://www.w3.org/2000/svg">
<path d="M76 14.8462C76 12.3981 77.5804 10.0502 80.3934 8.31911C83.2064 6.588 87.0218 5.61548 91 5.61548C94.9782 5.61548 98.7936 6.588 101.607 8.31911C104.42 10.0502 106 12.3981 106 14.8462H76Z" stroke="#000001" stroke-width="2" stroke-linecap="round" stroke-linejoin="round"/>
<path d="M83.5 21.7693V24.077" stroke="#000001" stroke-width="2" stroke-linecap="round" stroke-linejoin="round"/>
<path d="M77.875 28.6924V31.0001" stroke="#000001" stroke-width="2" stroke-linecap="round" stroke-linejoin="round"/>
<path d="M91 28.6924V31.0001" stroke="#000001" stroke-width="2" stroke-linecap="round" stroke-linejoin="round"/>
<path d="M104.125 28.6924V31.0001" stroke="#000001" stroke-width="2" stroke-linecap="round" stroke-linejoin="round"/>
<path d="M98.5 21.7693V24.077" stroke="#000001" stroke-width="2" stroke-linecap="round" stroke-linejoin="round"/>
<path d="M91 5.61538V1" stroke="#000001" stroke-width="2" stroke-linecap="round" stroke-linejoin="round"/>
<path d="M226 24.4783C226 19.9811 227.58 15.6681 230.393 12.4882C233.206 9.30821 237.022 7.52173 241 7.52173C244.978 7.52173 248.794 9.30821 251.607 12.4882C254.42 15.6681 256 19.9811 256 24.4783H226Z" stroke="#000001" stroke-width="2" stroke-linecap="round" stroke-linejoin="round"/>
<path d="M226 31H256" stroke="#000001" stroke-width="2" stroke-linecap="round" stroke-linejoin="round"/>
<path d="M241 7.52174V1" stroke="#000001" stroke-width="2" stroke-linecap="round" stroke-linejoin="round"/>
<path d="M237.538 1H244.462" stroke="#000001" stroke-width="2" stroke-linecap="round" stroke-linejoin="round"/>
<path d="M166 31C174.284 31 181 24.2843 181 16C181 7.71573 174.284 1 166 1C157.716 1 151 7.71573 151 16C151 24.2843 157.716 31 166 31Z" stroke="#000001" stroke-width="2" stroke-linecap="round" stroke-linejoin="round"/>
<path d="M151 16H181" stroke="#000001" stroke-width="2" stroke-linecap="round" stroke-linejoin="round"/>
<path d="M171.769 16C171.486 21.4854 169.465 26.7385 166 31C162.535 26.7385 160.514 21.4854 160.231 16C160.514 10.5146 162.535 5.2615 166 1C169.465 5.2615 171.486 10.5146 171.769 16V16Z" stroke="#000001" stroke-width="2" stroke-linecap="round" stroke-linejoin="round"/>
<path d="M317.308 13.6924C315.298 13.6938 313.318 14.1714 311.529 15.086C309.74 16.0006 308.193 17.3261 307.015 18.9539L302.308 16.0001L300 18.3078L304.615 26.3847V28.6924C304.615 29.3044 304.859 29.8914 305.291 30.3242C305.724 30.7569 306.311 31.0001 306.923 31.0001H327.692C328.304 31.0001 328.891 30.7569 329.324 30.3242C329.757 29.8914 330 29.3044 330 28.6924V26.3847C330 23.0185 328.663 19.7901 326.283 17.4099C323.902 15.0296 320.674 13.6924 317.308 13.6924Z" stroke="#000001" stroke-width="2" stroke-linecap="round" stroke-linejoin="round"/>
<path d="M317.308 13.6923V10.2307" stroke="#000001" stroke-width="2" stroke-linecap="round" stroke-linejoin="round"/>
<path d="M308.077 17.6846V10.2308C308.077 7.78262 309.049 5.43473 310.781 3.70363C312.512 1.97252 314.86 1 317.308 1C319.756 1 322.104 1.97252 323.835 3.70363C325.566 5.43473 326.538 7.78262 326.538 10.2308V17.6846" stroke="#000001" stroke-width="2" stroke-linecap="round" stroke-linejoin="round"/>
<path d="M31 23.5C31 21.5109 30.2706 19.6032 28.9723 18.1967C27.6739 16.7902 25.913 16 24.0769 16H3.30769C2.69565 16 2.10868 16.2634 1.67591 16.7322C1.24313 17.2011 1 17.837 1 18.5V28.5C1 29.163 1.24313 29.7989 1.67591 30.2678C2.10868 30.7366 2.69565 31 3.30769 31H24.0769C25.913 31 27.6739 30.2098 28.9723 28.8033C30.2706 27.3968 31 25.4891 31 23.5Z" stroke="#000001" stroke-width="2" stroke-linecap="round" stroke-linejoin="round"/>
<path d="M1 23.5H21.7692" stroke="#000001" stroke-width="2" stroke-linecap="round" stroke-linejoin="round"/>
<path d="M7.92308 16C6.08696 16 4.32605 15.2098 3.02772 13.8033C1.72939 12.3968 1 10.4891 1 8.5C1 6.51088 1.72939 4.60322 3.02772 3.1967C4.32605 1.79018 6.08696 1 7.92308 1H28.6923C29.3043 1 29.8913 1.26339 30.3241 1.73223C30.7569 2.20107 31 2.83696 31 3.5V13.5C31 14.163 30.7569 14.7989 30.3241 15.2678C29.8913 15.7366 29.3043 16 28.6923 16H24.4" stroke="#000001" stroke-width="2" stroke-linecap="round" stroke-linejoin="round"/>
<path d="M30.9999 8.5H10.2307" stroke="#000001" stroke-width="2" stroke-linecap="round" stroke-linejoin="round"/>
<path d="M396.818 1H377.182C375.977 1 375 2.03319 375 3.30769V28.6923C375 29.9668 375.977 31 377.182 31H396.818C398.023 31 399 29.9668 399 28.6923V3.30769C399 2.03319 398.023 1 396.818 1Z" stroke="#000001" stroke-width="2" stroke-linecap="round" stroke-linejoin="round"/>
<path d="M389.4 14L399 14" stroke="#000001" stroke-width="2" stroke-linecap="round" stroke-linejoin="round"/>
</svg>
