<svg width="40" height="34" viewBox="0 0 40 34" fill="none" xmlns="http://www.w3.org/2000/svg">
<path d="M30.0461 10.8462C32.7651 10.8462 34.9692 8.64202 34.9692 5.92308C34.9692 3.20414 32.7651 1 30.0461 1C27.3272 1 25.123 3.20414 25.123 5.92308C25.123 8.64202 27.3272 10.8462 30.0461 10.8462Z" stroke="#620318" stroke-width="2" stroke-linecap="round" stroke-linejoin="round"/>
<path d="M38.6617 19.4613C38.6617 17.1764 37.754 14.985 36.1383 13.3693C34.5226 11.7536 32.3312 10.8459 30.0463 10.8459C27.7614 10.8459 25.57 11.7536 23.9543 13.3693C22.3386 14.985 21.4309 17.1764 21.4309 19.4613V23.1536H25.1232L26.354 32.9998H33.7386L34.9694 23.1536H38.6617V19.4613Z" stroke="#620318" stroke-width="2" stroke-linecap="round" stroke-linejoin="round"/>
<path d="M9.61546 10.8462C12.3344 10.8462 14.5385 8.64202 14.5385 5.92308C14.5385 3.20414 12.3344 1 9.61546 1C6.89652 1 4.69238 3.20414 4.69238 5.92308C4.69238 8.64202 6.89652 10.8462 9.61546 10.8462Z" stroke="#620318" stroke-width="2" stroke-linecap="round" stroke-linejoin="round"/>
<path d="M18.2308 19.4613C18.2308 17.1764 17.3231 14.985 15.7074 13.3693C14.0917 11.7536 11.9003 10.8459 9.61539 10.8459C7.33044 10.8459 5.13909 11.7536 3.52339 13.3693C1.90769 14.985 1 17.1764 1 19.4613V23.1536H4.69231L5.92308 32.9998H13.3077L14.5385 23.1536H18.2308V19.4613Z" stroke="#620318" stroke-width="2" stroke-linecap="round" stroke-linejoin="round"/>
</svg>
