<svg width="34" height="34" viewBox="0 0 34 34" fill="none" xmlns="http://www.w3.org/2000/svg">
<path d="M30.5385 1H3.46154C2.10207 1 1 2.10207 1 3.46154V30.5385C1 31.8979 2.10207 33 3.46154 33H30.5385C31.8979 33 33 31.8979 33 30.5385V3.46154C33 2.10207 31.8979 1 30.5385 1Z" stroke="#620318" stroke-width="2" stroke-linecap="round" stroke-linejoin="round"/>
<path d="M9.61553 25.6156C10.2953 25.6156 10.8463 25.0646 10.8463 24.3848C10.8463 23.7051 10.2953 23.1541 9.61553 23.1541C8.9358 23.1541 8.38477 23.7051 8.38477 24.3848C8.38477 25.0646 8.9358 25.6156 9.61553 25.6156Z" stroke="#620318" stroke-width="2" stroke-linecap="round" stroke-linejoin="round"/>
<path d="M10.8462 15.7693C12.8047 15.7693 14.683 16.5473 16.0679 17.9322C17.4528 19.3171 18.2308 21.1954 18.2308 23.1539" stroke="#620318" stroke-width="2" stroke-linecap="round" stroke-linejoin="round"/>
<path d="M10.8462 8.38452C14.7632 8.38452 18.5198 9.94056 21.2896 12.7103C24.0594 15.4801 25.6154 19.2367 25.6154 23.1538" stroke="#620318" stroke-width="2" stroke-linecap="round" stroke-linejoin="round"/>
</svg>
