<svg width="32" height="32" viewBox="0 0 32 32" fill="none" xmlns="http://www.w3.org/2000/svg">
<path d="M31 23.5C31 21.5109 30.2706 19.6032 28.9723 18.1967C27.6739 16.7902 25.913 16 24.0769 16H3.30769C2.69565 16 2.10868 16.2634 1.67591 16.7322C1.24313 17.2011 1 17.837 1 18.5V28.5C1 29.163 1.24313 29.7989 1.67591 30.2678C2.10868 30.7366 2.69565 31 3.30769 31H24.0769C25.913 31 27.6739 30.2098 28.9723 28.8033C30.2706 27.3968 31 25.4891 31 23.5Z" stroke="#620318" stroke-width="2" stroke-linecap="round" stroke-linejoin="round"/>
<path d="M1 23.5H21.7692" stroke="#620318" stroke-width="2" stroke-linecap="round" stroke-linejoin="round"/>
<path d="M7.92308 16C6.08696 16 4.32605 15.2098 3.02772 13.8033C1.72939 12.3968 1 10.4891 1 8.5C1 6.51088 1.72939 4.60322 3.02772 3.1967C4.32605 1.79018 6.08696 1 7.92308 1H28.6923C29.3043 1 29.8913 1.26339 30.3241 1.73223C30.7569 2.20107 31 2.83696 31 3.5V13.5C31 14.163 30.7569 14.7989 30.3241 15.2678C29.8913 15.7366 29.3043 16 28.6923 16H24.4" stroke="#620318" stroke-width="2" stroke-linecap="round" stroke-linejoin="round"/>
<path d="M30.9999 8.5H10.2307" stroke="#620318" stroke-width="2" stroke-linecap="round" stroke-linejoin="round"/>
</svg>
