<svg width="32" height="32" viewBox="0 0 32 32" fill="none" xmlns="http://www.w3.org/2000/svg">
<path d="M18.3077 13.6924C16.2984 13.6938 14.3181 14.1714 12.5291 15.086C10.7401 16.0006 9.19322 17.3261 8.01538 18.9539L3.30769 16.0001L1 18.3078L5.61538 26.3847V28.6924C5.61538 29.3044 5.85852 29.8914 6.29129 30.3242C6.72407 30.7569 7.31104 31.0001 7.92308 31.0001H28.6923C29.3043 31.0001 29.8913 30.7569 30.3241 30.3242C30.7569 29.8914 31 29.3044 31 28.6924V26.3847C31 23.0185 29.6628 19.7901 27.2825 17.4099C24.9022 15.0296 21.6739 13.6924 18.3077 13.6924Z" stroke="#000001" stroke-width="2" stroke-linecap="round" stroke-linejoin="round"/>
<path d="M18.3077 13.6923V10.2307" stroke="#000001" stroke-width="2" stroke-linecap="round" stroke-linejoin="round"/>
<path d="M9.0769 17.6846V10.2308C9.0769 7.78262 10.0494 5.43473 11.7805 3.70363C13.5116 1.97252 15.8595 1 18.3077 1C20.7558 1 23.1037 1.97252 24.8348 3.70363C26.5659 5.43473 27.5384 7.78262 27.5384 10.2308V17.6846" stroke="#000001" stroke-width="2" stroke-linecap="round" stroke-linejoin="round"/>
</svg>
