<svg width="40" height="32" viewBox="0 0 40 32" fill="none" xmlns="http://www.w3.org/2000/svg">
<path d="M36.5627 11.0005H25.6568C20.2017 11.0063 14.8862 12.9403 10.4616 16.5291C6.03706 20.1179 2.72723 25.1801 1 31H36.0292C36.4573 31 36.8803 30.8957 37.2691 30.6943C37.6579 30.4929 38.0033 30.1992 38.2815 29.8333C38.5628 29.4661 38.7696 29.0343 38.8873 28.568C39.005 28.1017 39.0309 27.6121 38.9631 27.1334L36.5627 11.0005Z" stroke="#000001" stroke-width="2" stroke-linecap="round" stroke-linejoin="round"/>
<path d="M36.5628 11.0004L35.9108 6.56715C35.6772 4.99579 34.951 3.57047 33.8638 2.54935C32.7765 1.52822 31.4001 0.978814 29.9837 1.00063H12.8544" stroke="#000001" stroke-width="2" stroke-linecap="round" stroke-linejoin="round"/>
</svg>
