<svg width="56" height="38" viewBox="0 0 56 38" fill="none" xmlns="http://www.w3.org/2000/svg">
<path id="Arrow 4" d="M54.7678 20.7678C55.7441 19.7915 55.7441 18.2085 54.7678 17.2322L38.8579 1.32233C37.8816 0.346021 36.2986 0.346021 35.3223 1.32233C34.346 2.29864 34.346 3.88155 35.3223 4.85787L49.4645 19L35.3223 33.1421C34.346 34.1184 34.346 35.7014 35.3223 36.6777C36.2986 37.654 37.8816 37.654 38.8579 36.6777L54.7678 20.7678ZM3 16.5C1.61928 16.5 0.499995 17.6193 0.499995 19C0.499996 20.3807 1.61928 21.5 3 21.5L3 16.5ZM53 16.5L3 16.5L3 21.5L53 21.5L53 16.5Z" fill="white"/>
</svg>
