<svg width="224" height="35" viewBox="0 0 224 35" fill="none" xmlns="http://www.w3.org/2000/svg">
<path d="M30.5385 1H3.46154C2.10207 1 1 2.10207 1 3.46154V30.5385C1 31.8979 2.10207 33 3.46154 33H30.5385C31.8979 33 33 31.8979 33 30.5385V3.46154C33 2.10207 31.8979 1 30.5385 1Z" stroke="#620318" stroke-width="2" stroke-linecap="round" stroke-linejoin="round"/>
<path d="M17.0001 8.38462H7.15393V1" stroke="#620318" stroke-width="2" stroke-linecap="round" stroke-linejoin="round"/>
<path d="M26.8462 1V8.38462H17V1" stroke="#620318" stroke-width="2" stroke-linecap="round" stroke-linejoin="round"/>
<path d="M1 14.5386H33" stroke="#620318" stroke-width="2" stroke-linecap="round" stroke-linejoin="round"/>
<path d="M92.0462 10.8462C94.7652 10.8462 96.9693 8.64202 96.9693 5.92308C96.9693 3.20414 94.7652 1 92.0462 1C89.3273 1 87.1232 3.20414 87.1232 5.92308C87.1232 8.64202 89.3273 10.8462 92.0462 10.8462Z" stroke="#620318" stroke-width="2" stroke-linecap="round" stroke-linejoin="round"/>
<path d="M100.662 19.4613C100.662 17.1764 99.754 14.985 98.1383 13.3693C96.5226 11.7536 94.3312 10.8459 92.0463 10.8459C89.7614 10.8459 87.57 11.7536 85.9543 13.3693C84.3386 14.985 83.4309 17.1764 83.4309 19.4613V23.1536H87.1232L88.354 32.9998H95.7386L96.9694 23.1536H100.662V19.4613Z" stroke="#620318" stroke-width="2" stroke-linecap="round" stroke-linejoin="round"/>
<path d="M71.6156 10.8462C74.3345 10.8462 76.5387 8.64202 76.5387 5.92308C76.5387 3.20414 74.3345 1 71.6156 1C68.8966 1 66.6925 3.20414 66.6925 5.92308C66.6925 8.64202 68.8966 10.8462 71.6156 10.8462Z" stroke="#620318" stroke-width="2" stroke-linecap="round" stroke-linejoin="round"/>
<path d="M80.2308 19.4613C80.2308 17.1764 79.3231 14.985 77.7074 13.3693C76.0917 11.7536 73.9003 10.8459 71.6154 10.8459C69.3304 10.8459 67.1391 11.7536 65.5234 13.3693C63.9077 14.985 63 17.1764 63 19.4613V23.1536H66.6923L67.9231 32.9998H75.3077L76.5385 23.1536H80.2308V19.4613Z" stroke="#620318" stroke-width="2" stroke-linecap="round" stroke-linejoin="round"/>
<path d="M220.538 2H193.462C192.102 2 191 3.10207 191 4.46154V31.5385C191 32.8979 192.102 34 193.462 34H220.538C221.898 34 223 32.8979 223 31.5385V4.46154C223 3.10207 221.898 2 220.538 2Z" stroke="#620318" stroke-width="2" stroke-linecap="round" stroke-linejoin="round"/>
<path d="M199.616 26.6156C200.295 26.6156 200.846 26.0646 200.846 25.3848C200.846 24.7051 200.295 24.1541 199.616 24.1541C198.936 24.1541 198.385 24.7051 198.385 25.3848C198.385 26.0646 198.936 26.6156 199.616 26.6156Z" stroke="#620318" stroke-width="2" stroke-linecap="round" stroke-linejoin="round"/>
<path d="M200.846 16.7693C202.805 16.7693 204.683 17.5473 206.068 18.9322C207.453 20.3171 208.231 22.1954 208.231 24.1539" stroke="#620318" stroke-width="2" stroke-linecap="round" stroke-linejoin="round"/>
<path d="M200.846 9.38452C204.763 9.38452 208.52 10.9406 211.289 13.7103C214.059 16.4801 215.615 20.2367 215.615 24.1538" stroke="#620318" stroke-width="2" stroke-linecap="round" stroke-linejoin="round"/>
<path d="M161 25.5C161 23.5109 160.271 21.6032 158.972 20.1967C157.674 18.7902 155.913 18 154.077 18H133.308C132.696 18 132.109 18.2634 131.676 18.7322C131.243 19.2011 131 19.837 131 20.5V30.5C131 31.163 131.243 31.7989 131.676 32.2678C132.109 32.7366 132.696 33 133.308 33H154.077C155.913 33 157.674 32.2098 158.972 30.8033C160.271 29.3968 161 27.4891 161 25.5Z" stroke="#620318" stroke-width="2" stroke-linecap="round" stroke-linejoin="round"/>
<path d="M131 25.5H151.769" stroke="#620318" stroke-width="2" stroke-linecap="round" stroke-linejoin="round"/>
<path d="M137.923 18C136.087 18 134.326 17.2098 133.028 15.8033C131.729 14.3968 131 12.4891 131 10.5C131 8.51088 131.729 6.60322 133.028 5.1967C134.326 3.79018 136.087 3 137.923 3H158.692C159.304 3 159.891 3.26339 160.324 3.73223C160.757 4.20107 161 4.83696 161 5.5V15.5C161 16.163 160.757 16.7989 160.324 17.2678C159.891 17.7366 159.304 18 158.692 18H154.4" stroke="#620318" stroke-width="2" stroke-linecap="round" stroke-linejoin="round"/>
<path d="M161 10.5H140.231" stroke="#620318" stroke-width="2" stroke-linecap="round" stroke-linejoin="round"/>
</svg>
