<svg width="204" height="64" viewBox="0 0 204 64" fill="none" xmlns="http://www.w3.org/2000/svg">
<path d="M22.3215 61.7948L11.4292 32.0102L8.41382 31.4564V30.6564H19.5523V31.4564L15.9215 31.9487L24.2907 54.6564L32.4754 33.1794L28.1061 31.4564V30.6564H36.2292V31.4564L33.5215 33.1179L22.6292 61.7948H22.3215ZM51.9093 39.764H52.8323V51.764H51.9093L49.6323 46.164H44.7093V60.0717H56.5862L59.7246 51.764H60.7093V60.9948H37.0785V60.1948L40.5246 59.641V32.0102L37.0785 31.4564V30.6564H59.8477V39.3333H58.8631L55.9093 31.641H44.7093V45.241H49.6323L51.9093 39.764ZM90.3876 58.3487L91.003 59.0256C89.6492 60.5846 88.1517 61.364 86.5107 61.364C84.8697 61.364 83.6799 61.0358 82.9415 60.3794C82.244 59.682 81.7927 58.5128 81.5876 56.8717L80.8492 51.764C80.3158 48.1128 78.2851 46.2871 74.7569 46.2871H71.803V59.641L75.3107 60.1948V60.9948H64.1722V60.1948L67.6184 59.641V32.0102L64.1722 31.4564V30.6564H74.7569C78.8594 30.6564 81.8338 31.3128 83.6799 32.6256C85.5261 33.8974 86.4492 35.8461 86.4492 38.4717C86.4492 42.8205 83.8235 45.3435 78.5722 46.041V46.2871C82.5517 46.8205 84.8697 48.9743 85.5261 52.7487L85.9569 56.0102C86.162 57.282 86.3876 58.2256 86.6338 58.841C86.921 59.4153 87.3927 59.7025 88.0492 59.7025C88.7466 59.7025 89.5261 59.2512 90.3876 58.3487ZM74.7569 31.641H71.803V45.364H76.0492C77.8953 45.364 79.3312 44.8102 80.3569 43.7025C81.3825 42.5538 81.8953 40.8717 81.8953 38.6564V37.9179C81.8953 33.7333 79.5158 31.641 74.7569 31.641ZM110.58 29.8564H111.38V37.6717H110.58L107.872 32.1333C105.985 31.2307 103.934 30.7794 101.719 30.7794C99.5032 30.7794 97.7597 31.3333 96.4879 32.441C95.2161 33.5487 94.5802 34.9025 94.5802 36.5025C94.5802 38.1025 95.0315 39.2923 95.934 40.0717C96.8366 40.8512 98.1494 41.4666 99.8725 41.9179L106.703 43.764C108.919 44.2974 110.56 45.241 111.626 46.5948C112.693 47.9487 113.226 50.0205 113.226 52.8102C113.226 55.5589 112.344 57.7538 110.58 59.3948C108.857 60.9948 106.662 61.7948 103.996 61.7948C101.37 61.7948 98.9289 61.0974 96.6725 59.7025L93.4725 61.364H92.6725V51.641H93.4725L96.734 58.6564C98.8263 60.1333 101.103 60.8717 103.565 60.8717C106.026 60.8717 107.975 60.2974 109.411 59.1487C110.888 57.9999 111.626 56.3384 111.626 54.164C111.626 52.6051 111.155 51.3948 110.211 50.5333C109.308 49.6307 107.79 48.9128 105.657 48.3794L99.3802 46.7794C97.2058 46.2051 95.5443 45.2205 94.3956 43.8256C93.2879 42.3897 92.734 40.7281 92.734 38.841C92.734 36.1333 93.5135 33.9589 95.0725 32.3179C96.6725 30.6769 98.7443 29.8564 101.288 29.8564C103.831 29.8564 106.006 30.2666 107.811 31.0871L110.58 29.8564ZM121.959 60.1948V60.9948H113.836V60.1948L117.528 58.6564L128.543 29.8564H129.097L139.497 59.641L143.005 60.1948V60.9948H131.866V60.1948L134.943 59.7025L131.682 50.7179H121.651L118.574 58.6564L121.959 60.1948ZM126.882 36.564L121.959 49.9179H131.436L126.882 36.564ZM143.578 30.6564H154.717V31.4564L151.209 32.0102V60.0717H162.532L165.609 51.764H166.655V60.9948H143.578V60.1948L147.025 59.641V32.0102L143.578 31.4564V30.6564ZM183.816 39.764H184.739V51.764H183.816L181.539 46.164H176.616V60.0717H188.492L191.631 51.764H192.616V60.9948H168.985V60.1948L172.431 59.641V32.0102L168.985 31.4564V30.6564H191.754V39.3333H190.769L187.816 31.641H176.616V45.241H181.539L183.816 39.764Z" fill="white"/>
<path d="M102 0L104.134 6.35896H111.038L105.452 10.289L107.586 16.648L102 12.7179L96.4143 16.648L98.5478 10.289L92.9621 6.35896H99.8665L102 0Z" fill="#FFCE50"/>
<path d="M62.7205 0L64.8541 6.35896H71.7585L66.1727 10.289L68.3063 16.648L62.7205 12.7179L57.1347 16.648L59.2683 10.289L53.6825 6.35896H60.5869L62.7205 0Z" fill="#FFCE50"/>
<path d="M141.279 0L143.413 6.35896H150.317L144.732 10.289L146.865 16.648L141.279 12.7179L135.694 16.648L137.827 10.289L132.241 6.35896H139.146L141.279 0Z" fill="#FFCE50"/>
</svg>
